<?xml version="1.0" encoding="UTF-8"?>
<svg width="44px" height="64px" viewBox="0 0 44 64" version="1.1" xmlns="http://www.w3.org/2000/svg" xmlns:xlink="http://www.w3.org/1999/xlink">
    <!-- Generator: Sketch 40.1 (33804) - http://www.bohemiancoding.com/sketch -->
    <title>Group</title>
    <desc>Created with Sketch.</desc>
    <defs></defs>
    <g id="Page-1" stroke="none" stroke-width="1" fill="none" fill-rule="evenodd">
        <g id="Group" transform="translate(0.934884, 0.000000)">
            <path d="M21.195477,0.0439008343 C9.48948,0.0439008343 0,9.53338083 0,21.2393778 C0,25.0042244 1.01102425,28.5253231 2.73209699,31.5880695 C3.01797098,32.0967609 3.31762204,32.5975041 3.64297261,33.0797012 L21.195477,63.6303318 L38.7479814,33.0797012 C39.0182237,32.6796365 39.251374,32.255727 39.4924725,31.8371163 L39.6593869,31.5880695 C41.37887,28.5253231 42.390954,25.0042244 42.390954,21.2393778 C42.390954,9.53338083 32.9006792,0.0439008343 21.195477,0.0439008343 L21.195477,0.0439008343 Z M21.195477,10.6416393 C27.0480781,10.6416393 31.7932155,15.3865118 31.7932155,21.2393778 C31.7932155,27.0919789 27.0480781,31.8371163 21.195477,31.8371163 C15.342611,31.8371163 10.5977385,27.0919789 10.5977385,21.2393778 C10.5977385,15.3865118 15.342611,10.6416393 21.195477,10.6416393 L21.195477,10.6416393 Z" id="Shape" fill="#19B88A"></path>
            <path d="M21.195477,7.99220471 C13.8793282,7.99220471 7.94830388,13.9232291 7.94830388,21.2393778 C7.94830388,28.5544668 13.8793282,34.486551 21.195477,34.486551 C28.510566,34.486551 34.4426501,28.5544668 34.4426501,21.2393778 C34.4426501,13.9232291 28.510566,7.99220471 21.195477,7.99220471 L21.195477,7.99220471 Z M21.195477,13.291074 C25.5855902,13.291074 29.1437809,16.8495296 29.1437809,21.2393778 C29.1437809,25.6292261 25.5855902,29.1876817 21.195477,29.1876817 C16.8053638,29.1876817 13.2471731,25.6292261 13.2471731,21.2393778 C13.2471731,16.8495296 16.8053638,13.291074 21.195477,13.291074 L21.195477,13.291074 Z" id="Shape" fill="#18966E"></path>
        </g>
    </g>
</svg>